<?xml version="1.0" encoding="UTF-8" standalone="no" ?>
<!DOCTYPE svg PUBLIC "-//W3C//DTD SVG 1.1//EN" "http://www.w3.org/Graphics/SVG/1.1/DTD/svg11.dtd">
<svg xmlns="http://www.w3.org/2000/svg" xmlns:xlink="http://www.w3.org/1999/xlink" version="1.1" width="320" height="100" viewBox="0 0 320 100" xml:space="preserve">
<desc>Created with Fabric.js 3.6.6</desc>
<defs>
</defs>
<g transform="matrix(1 0 0 1 50 49.68)"  >
<path style="stroke: none; stroke-width: 1; stroke-dasharray: none; stroke-linecap: butt; stroke-dashoffset: 0; stroke-linejoin: miter; stroke-miterlimit: 4; fill: rgb(58,98,41); fill-rule: nonzero; opacity: 1;"  transform=" translate(-50, -49.69)" d="M 66.31 40.577 h 12.988 c 3.953 0 7.168 -3.215 7.168 -7.167 s -3.215 -7.167 -7.168 -7.167 c -0.075 0 -0.151 0.001 -0.228 0.004 c -0.918 -2.075 -2.997 -3.463 -5.313 -3.463 c -0.873 0 -1.716 0.191 -2.488 0.561 c -1.257 -2.214 -3.632 -3.636 -6.23 -3.636 c -3.096 0 -5.731 1.976 -6.732 4.73 l -7.041 -14.197 c -0.168 -0.339 -0.514 -0.554 -0.892 -0.556 c -0.001 0 -0.002 0 -0.004 0 c -0.377 0 -0.722 0.212 -0.893 0.549 l -39.42 78 c -0.249 0.493 -0.051 1.095 0.441 1.344 c 0.145 0.073 0.299 0.107 0.45 0.107 c 0.365 0 0.717 -0.201 0.894 -0.549 l 22.264 -44.054 l 4.462 10.01 c 0.161 0.36 0.519 0.593 0.914 0.593 c 0.395 0 0.752 -0.232 0.914 -0.593 l 4.376 -9.818 l 4.374 9.818 c 0.161 0.361 0.519 0.593 0.914 0.593 c 0.395 0 0.753 -0.232 0.914 -0.593 l 4.369 -9.815 l 4.371 9.815 c 0.161 0.361 0.519 0.593 0.914 0.593 s 0.753 -0.232 0.914 -0.593 l 4.605 -10.345 l 22.009 44.383 c 0.175 0.352 0.529 0.556 0.897 0.556 c 0.149 0 0.301 -0.033 0.443 -0.104 c 0.495 -0.246 0.697 -0.846 0.452 -1.34 L 66.31 40.577 z M 65.039 21.708 c 2.165 0 4.115 1.371 4.854 3.412 c 0.109 0.3 0.354 0.53 0.66 0.62 c 0.307 0.089 0.637 0.027 0.89 -0.167 c 0.673 -0.517 1.473 -0.79 2.315 -0.79 c 1.708 0 3.217 1.151 3.672 2.799 c 0.134 0.487 0.612 0.797 1.11 0.723 c 0.249 -0.037 0.5 -0.063 0.759 -0.063 c 2.85 0 5.168 2.318 5.168 5.167 s -2.318 5.167 -5.168 5.167 H 58.747 c -0.04 -0.007 -0.08 -0.012 -0.12 -0.014 c -2.381 -0.128 -4.247 -2.095 -4.247 -4.477 c 0 -2.473 2.009 -4.485 4.575 -4.485 c 0.011 -0.001 0.11 0.006 0.121 0.007 c 0.318 0.012 0.633 -0.127 0.833 -0.381 c 0.2 -0.254 0.264 -0.589 0.173 -0.899 c -0.14 -0.479 -0.211 -0.967 -0.211 -1.453 C 59.871 24.026 62.189 21.708 65.039 21.708 z M 60.626 52.227 l -4.372 -9.816 c -0.161 -0.361 -0.519 -0.593 -0.914 -0.593 s -0.753 0.232 -0.914 0.593 l -4.369 9.816 l -4.373 -9.816 c -0.161 -0.361 -0.519 -0.593 -0.914 -0.593 c -0.395 0 -0.752 0.232 -0.914 0.593 l -4.377 9.819 L 35.27 42.78 l 15.091 -29.861 l 7.339 14.8 c -3.02 0.554 -5.321 3.19 -5.321 6.368 c 0 3.383 2.601 6.186 5.954 6.461 c 0.077 0.019 0.158 0.029 0.24 0.029 h 5.503 l 0.914 1.843 L 60.626 52.227 z" stroke-linecap="round" />
</g>
<g transform="matrix(1 0 0 1 23.15 21.78)"  >
<path style="stroke: none; stroke-width: 1; stroke-dasharray: none; stroke-linecap: butt; stroke-dashoffset: 0; stroke-linejoin: miter; stroke-miterlimit: 4; fill: rgb(58,98,41); fill-rule: nonzero; opacity: 1;"  transform=" translate(-23.15, -21.78)" d="M 14.677 29.933 c 0.071 0.017 0.146 0.025 0.222 0.025 h 15.755 c 3.137 0 5.689 -2.552 5.689 -5.689 s -2.552 -5.689 -5.689 -5.689 c -0.007 0 -0.015 0 -0.022 0 c -0.767 -1.582 -2.389 -2.63 -4.191 -2.63 c -0.625 0 -1.231 0.123 -1.795 0.36 c -1.022 -1.65 -2.846 -2.698 -4.833 -2.698 c -3.137 0 -5.689 2.552 -5.689 5.689 c 0 0.134 0.005 0.269 0.015 0.403 c -2.383 0.461 -4.188 2.564 -4.188 5.08 C 9.95 27.474 12.013 29.705 14.677 29.933 z M 15.123 21.609 l 0.01 -0.937 l 0.009 -0.002 l 0.127 0.948 c 0.333 0.016 0.633 -0.127 0.833 -0.381 c 0.199 -0.254 0.264 -0.589 0.173 -0.899 c -0.1 -0.342 -0.151 -0.691 -0.151 -1.037 c 0 -2.034 1.655 -3.689 3.689 -3.689 c 1.545 0 2.938 0.979 3.465 2.436 c 0.108 0.3 0.354 0.53 0.66 0.62 c 0.306 0.089 0.637 0.028 0.89 -0.167 c 0.469 -0.36 1.028 -0.551 1.614 -0.551 c 1.19 0 2.244 0.803 2.561 1.952 c 0.135 0.487 0.613 0.801 1.112 0.723 c 0.177 -0.026 0.356 -0.045 0.541 -0.045 c 2.034 0 3.689 1.655 3.689 3.689 s -1.655 3.689 -3.689 3.689 H 15.05 c -0.033 -0.005 -0.065 -0.008 -0.099 -0.01 c -1.683 -0.09 -3.001 -1.48 -3.001 -3.164 C 11.95 23.033 13.374 21.609 15.123 21.609 z" stroke-linecap="round" />
</g>
<g transform="matrix(2.15 0 0 2.15 208.99 39.73)"  >
<path style="stroke: none; stroke-width: 1; stroke-dasharray: none; stroke-linecap: butt; stroke-dashoffset: 0; stroke-linejoin: miter; stroke-miterlimit: 4; fill: rgb(255,255,255); fill-rule: nonzero; opacity: 1;"  transform=" translate(-45.58, -13.56)" d="M 7.14 11.64 q 1.34 -1.4 2.42 -3.12 t 1.72 -3.44 l 2.5 0 q -1.02 2.38 -2.48 4.56 q -1.32 1.98 -3.08 3.9 l 0 6.46 l -2.16 0 l 0 -6.46 q -1.76 -1.92 -3.08 -3.9 q -1.46 -2.18 -2.48 -4.56 l 2.5 0 q 0.64 1.72 1.72 3.44 t 2.42 3.12 z M 22.98 16.259999999999998 l 1.1 -1.9 q 0.6 0.04 1.05 0.2 t 0.99 0.52 q 0.38 0.24 1.34 0.96 l 0.38 0.28 q 0.72 -0.78 1.12 -1.74 q 0.42 -1.02 0.42 -2.14 q 0 -1.6 -0.82 -2.9 q -0.78 -1.26 -2.13 -1.98 t -2.93 -0.72 q -1.64 0 -2.99 0.74 t -2.11 2.02 q -0.78 1.34 -0.78 2.98 q 0 1.56 0.84 2.88 q 0.8 1.24 2.15 1.97 t 2.91 0.73 q 1.28 0 2.44 -0.52 q -1.02 -0.76 -1.54 -1.02 q -0.64 -0.32 -1.44 -0.36 z M 31.540000000000003 12.559999999999999 q 0 1.42 -0.52 2.74 q -0.48 1.24 -1.4 2.3 q 1.24 0.76 2.24 0.84 l -1.1 1.9 q -0.78 -0.08 -1.52 -0.44 q -0.56 -0.26 -1.34 -0.82 q -0.96 0.62 -2.08 0.94 t -2.32 0.32 q -2.22 0 -4.08 -1.08 q -1.82 -1.04 -2.86 -2.86 q -1.08 -1.86 -1.08 -4.08 q 0 -2.14 1.14 -3.94 q 1.08 -1.72 2.93 -2.73 t 3.97 -1.01 q 2.18 0 4.04 1.06 q 1.82 1.04 2.88 2.82 q 1.1 1.86 1.1 4.04 z M 45.72 20 l -10.46 0 l 0 -14.92 l 2.18 0 l 0 12.74 l 8.28 0 l 0 2.18 z M 53.34 11.46 l 2.64 0 q 2.2 0 2.2 -2.12 q 0 -1.1 -0.55 -1.59 t -1.65 -0.49 l -5.48 0 l 0 4.8 q 0.62 -0.36 1.4 -0.5 q 0.58 -0.1 1.44 -0.1 z M 50.50000000000001 20 l -2.18 0 l 0 -14.92 l 7.66 0 q 1.32 0 2.3 0.51 t 1.52 1.47 t 0.54 2.27 t -0.54 2.29 t -1.53 1.51 t -2.29 0.53 l -2.64 0 q -1.72 0 -2.84 0.6 l 0 5.74 z M 75.34 22.48 l -14 0 l 0 -1.78 l 14 0 l 0 1.78 z M 90.32000000000001 7 l -1.4 1.64 q -0.82 -0.84 -1.96 -1.32 t -2.4 -0.48 q -1.64 0 -2.99 0.74 t -2.11 2.02 q -0.78 1.34 -0.78 2.98 q 0 1.56 0.84 2.88 q 0.8 1.24 2.15 1.97 t 2.91 0.73 q 1.1 0 2.11 -0.38 t 1.81 -1.06 l 0 -2.72 l -1.92 0 l -0.94 -2.16 l 5.02 0 l 0 5.8 q -1.14 1.28 -2.73 1.99 t -3.37 0.71 q -2.22 0 -4.08 -1.08 q -1.82 -1.04 -2.86 -2.86 q -1.08 -1.86 -1.08 -4.08 q 0 -2.14 1.14 -3.94 q 1.08 -1.72 2.93 -2.73 t 3.97 -1.01 q 1.66 0 3.16 0.64 q 1.46 0.6 2.58 1.72 z" stroke-linecap="round" />
</g>
<g transform="matrix(0.66 0 0 0.66 209.02 73.22)"  >
<path style="stroke: none; stroke-width: 1; stroke-dasharray: none; stroke-linecap: butt; stroke-dashoffset: 0; stroke-linejoin: miter; stroke-miterlimit: 4; fill: rgb(58,98,41); fill-rule: nonzero; opacity: 1;"  transform=" translate(-144.44, -12.92)" d="M 8.32 5.48 c 2.1066 0 3.8634 0.69998 5.27 2.1 s 2.11 3.18 2.11 5.34 c 0 1.3733 -0.31334 2.63 -0.94 3.77 s -1.51 2.0366 -2.65 2.69 s -2.4034 0.98 -3.79 0.98 c -1.3733 0 -2.6266 -0.32334 -3.76 -0.97 s -2.02 -1.54 -2.66 -2.68 s -0.96 -2.4034 -0.96 -3.79 c 0 -2.1066 0.69 -3.8734 2.07 -5.3 s 3.15 -2.14 5.31 -2.14 z M 2.98 12.92 c 0 1.6 0.49998 2.94 1.5 4.02 s 2.28 1.62 3.84 1.62 c 1.5333 0 2.8066 -0.53334 3.82 -1.6 s 1.52 -2.4134 1.52 -4.04 c 0 -1.6133 -0.5 -2.9566 -1.5 -4.03 s -2.2866 -1.61 -3.86 -1.61 c -1.52 0 -2.7866 0.53334 -3.8 1.6 s -1.52 2.4134 -1.52 4.04 z M 38.036 5.84 c 1.3733 0 2.4566 0.34 3.25 1.02 s 1.19 1.66 1.19 2.94 c 0 1.24 -0.39334 2.21 -1.18 2.91 s -1.8733 1.05 -3.26 1.05 l -3.16 0 l 0 6.24 l -1.92 0 l 0 -14.16 l 5.08 0 z M 37.476 12.08 c 1 0 1.7433 -0.18336 2.23 -0.55002 s 0.73 -0.94332 0.73 -1.73 c 0 -1.52 -0.98666 -2.28 -2.96 -2.28 l -2.6 0 l 0 4.56 l 2.6 0 z M 85.548 5.84 l 6.06 14.16 l -2.24 0 l -1.42 -3.5 l -6.74 0 l -1.4 3.5 l -2.24 0 l 6.24 -14.16 l 1.74 0 z M 81.888 14.82 l 5.36 0 l -2.64 -6.5 l -0.04 0 z M 106.38399999999999 5.84 l 4.16 11.52 l 0.04 0 l 4.32 -11.52 l 2.1 0 l -5.58 14.16 l -1.8 0 l -5.46 -14.16 l 2.22 0 z M 139.7 5.48 c 2.1066 0 3.8634 0.69998 5.27 2.1 s 2.11 3.18 2.11 5.34 c 0 1.3733 -0.31334 2.63 -0.94 3.77 s -1.51 2.0366 -2.65 2.69 s -2.4034 0.98 -3.79 0.98 c -1.3733 0 -2.6266 -0.32334 -3.76 -0.97 s -2.02 -1.54 -2.66 -2.68 s -0.96 -2.4034 -0.96 -3.79 c 0 -2.1066 0.69 -3.8734 2.07 -5.3 s 3.15 -2.14 5.31 -2.14 z M 134.35999999999999 12.92 c 0 1.6 0.49998 2.94 1.5 4.02 s 2.28 1.62 3.84 1.62 c 1.5333 0 2.8066 -0.53334 3.82 -1.6 s 1.52 -2.4134 1.52 -4.04 c 0 -1.6133 -0.5 -2.9566 -1.5 -4.03 s -2.2866 -1.61 -3.86 -1.61 c -1.52 0 -2.7866 0.53334 -3.8 1.6 s -1.52 2.4134 -1.52 4.04 z M 166.856 5.84 l 7.8 11.64 l 0.04 0 l 0 -11.64 l 1.92 0 l 0 14.16 l -2.44 0 l -7.88 -11.64 l -0.04 0 l 0 11.64 l -1.92 0 l 0 -14.16 l 2.52 0 z M 204.19199999999998 5.84 l 0 1.8 l -4.56 0 l 0 12.36 l -1.92 0 l 0 -12.36 l -4.56 0 l 0 -1.8 l 11.04 0 z M 222.38799999999998 5.84 l 0 8.74 c 0 1.16 0.32334 2.1134 0.97 2.86 s 1.51 1.12 2.59 1.12 s 1.9433 -0.37334 2.59 -1.12 s 0.97 -1.7 0.97 -2.86 l 0 -8.74 l 1.92 0 l 0 9.06 c 0 0.97334 -0.23 1.8833 -0.69 2.73 s -1.1133 1.5133 -1.96 2 s -1.79 0.73 -2.83 0.73 c -1.6 0 -2.9134 -0.52334 -3.94 -1.57 s -1.54 -2.3434 -1.54 -3.89 l 0 -9.06 l 1.92 0 z M 250.96399999999997 5.84 l 0 8.74 c 0 1.16 0.32334 2.1134 0.97 2.86 s 1.51 1.12 2.59 1.12 s 1.9433 -0.37334 2.59 -1.12 s 0.97 -1.7 0.97 -2.86 l 0 -8.74 l 1.92 0 l 0 9.06 c 0 0.97334 -0.23 1.8833 -0.69 2.73 s -1.1133 1.5133 -1.96 2 s -1.79 0.73 -2.83 0.73 c -1.6 0 -2.9134 -0.52334 -3.94 -1.57 s -1.54 -2.3434 -1.54 -3.89 l 0 -9.06 l 1.92 0 z M 282.96 5.84 c 1.3867 0 2.4734 0.34666 3.26 1.04 s 1.18 1.6667 1.18 2.92 c 0 0.94666 -0.32334 1.7733 -0.97 2.48 s -1.4767 1.1267 -2.49 1.26 l -0.02 0 l 4.02 6.46 l -2.4 0 l -3.6 -6.24 l -2.14 0 l 0 6.24 l -1.92 0 l 0 -14.16 l 5.08 0 z M 282.4 12.08 c 1 0 1.7433 -0.18336 2.23 -0.55002 s 0.73 -0.94332 0.73 -1.73 c 0 -1.52 -0.98666 -2.28 -2.96 -2.28 l -2.6 0 l 0 4.56 l 2.6 0 z" stroke-linecap="round" />
</g>
</svg>